<?xml version='1.0' encoding='iso-8859-1'?>
<!DOCTYPE svg PUBLIC '-//W3C//DTD SVG 1.1//EN' 'http://www.w3.org/Graphics/SVG/1.1/DTD/svg11.dtd'>
<svg version="1.1" xmlns="http://www.w3.org/2000/svg" viewBox="0 0 512.25 512.25" xmlns:xlink="http://www.w3.org/1999/xlink" enable-background="new 0 0 512.25 512.25">
  <path d="m480.25,368.125h-64.25v-304c0-17.672-14.328-32-32-32s-32,14.328-32,32v208c0-12.867-7.516-23.885-18.466-28.967l-32.401-97.393c-13.086-39.266-49.625-65.641-91.008-65.641h-81.875c-17.672,0-32.25,14.328-32.25,32v128h-63.75c-17.672,0-32.25,14.328-32.25,32v128c0,17.672 14.578,32 32.25,32h2.272c7.156,27.523 31.995,48 61.728,48 29.732,0 54.571-20.477 61.728-48h57.054c12.38,28.203 40.498,48 73.219,48s60.839-19.797 73.219-48h118.78c17.672,0 32-14.328 32-32s-14.328-31.999-32-31.999zm-320.25-176v-48h50.125c13.797,0 25.992,8.789 30.352,21.875l24.708,74.125h-56.935c0-26.469-21.25-48-48.25-48zm128.25,224c-8.82,0-16-7.18-16-16s7.18-16 16-16 16,7.18 16,16-7.18,16-16,16z"/>
</svg>
